<?xml version="1.0" encoding="UTF-8"?>
<!DOCTYPE svg PUBLIC "-//W3C//DTD SVG 1.1//EN" "http://www.w3.org/Graphics/SVG/1.1/DTD/svg11.dtd">
<!-- Creator: CorelDRAW X7 -->
<?xml-stylesheet href="10.css" type="text/css"?>
<svg xmlns="http://www.w3.org/2000/svg" xml:space="preserve" width="128px" height="148px" version="1.1" style="shape-rendering:geometricPrecision; text-rendering:geometricPrecision; image-rendering:optimizeQuality; fill-rule:evenodd; clip-rule:evenodd"
viewBox="0 0 1501796 1734489"
 xmlns:xlink="http://www.w3.org/1999/xlink">
 <g id="Capa_x0020_1">
  <metadata id="CorelCorpID_0Corel-Layer"/>
  <path class="fil0" d="M571339 1406186c-210727,-17573 -404494,-67492 -567200,-141284l-3761 210665c-4517,252631 535769,269018 900222,255575 -153243,-52317 -275003,-172636 -329261,-324956zm20447 -406225c-218652,-15965 -419669,-66718 -587647,-142883l0 302013c151423,74258 337371,126021 542131,146266 -3735,-25332 -5641,-51245 -5641,-77623 0,-81507 18364,-158734 51157,-227773zm892937 -253026l0 -329191c-157487,111058 -429510,182758 -739150,182758 -309666,0 -582656,-69100 -741434,-176774l0 327521c176598,86612 400135,142611 645710,153726 97165,-127022 250276,-208977 422525,-208977 114448,0 220435,36175 307179,97674 36685,-14392 71798,-30007 105170,-46737zm-744615 -746935c408729,0 740107,114985 740107,256840 0,141899 -331378,256883 -740107,256883 -408765,0 -740108,-114984 -740108,-256883 0,-141855 331343,-256840 740108,-256840zm744826 892296l-167 -52009 -32792 15175c11510,11765 22520,24032 32959,36834zm-412560 -93967c237139,0 429422,192283 429422,429431 0,237149 -192283,429414 -429422,429414 -237149,0 -429422,-192265 -429422,-429414 0,-237148 192273,-429431 429422,-429431zm-233994 360499l164191 0 0 -165053 138709 0 0 165053 165070 0 0 138726 -165070 0 0 164183 -138709 0 0 -164183 -164191 0 0 -138726z"/>
 </g>
</svg>
