<?xml version="1.0" encoding="UTF-8"?>
<!DOCTYPE svg PUBLIC "-//W3C//DTD SVG 1.1//EN" "http://www.w3.org/Graphics/SVG/1.1/DTD/svg11.dtd">
<!-- Creator: CorelDRAW X7 -->
<?xml-stylesheet href="11.css" type="text/css"?>
<svg xmlns="http://www.w3.org/2000/svg" xml:space="preserve" width="128px" height="70px" version="1.1" style="shape-rendering:geometricPrecision; text-rendering:geometricPrecision; image-rendering:optimizeQuality; fill-rule:evenodd; clip-rule:evenodd"
viewBox="0 0 1327104 725261"
 xmlns:xlink="http://www.w3.org/1999/xlink">
 <g id="Capa_x0020_1">
  <metadata id="CorelCorpID_0Corel-Layer"/>
  <path class="fil0" d="M1304873 0c12196,0 22231,10417 22231,23234l0 678873c0,12657 -10035,23080 -22231,23154l-3008 0 -310453 -229405 0 -268691 313461 -227165zm-833949 139477c123117,0 222846,99883 222846,223153 0,123271 -99729,223154 -222846,223154 -122956,0 -222685,-99883 -222685,-223154 0,-123270 99729,-223153 222685,-223153zm-434258 -133533l701332 0c169123,0 208798,115474 208798,172205l0 509289c0,20145 -16441,36586 -36586,36586l-743099 0c-63912,0 -167111,-59198 -167111,-173362l0 -507978c0,-20226 16441,-36740 36666,-36740zm301266 317473l93244 0 0 -94093 78962 0 0 94093 93865 0 0 78962 -93865 0 0 93558 -78962 0 0 -93558 -93244 0 0 -78962z"/>
 </g>
</svg>
