<?xml version="1.0" encoding="UTF-8"?>
<!DOCTYPE svg PUBLIC "-//W3C//DTD SVG 1.1//EN" "http://www.w3.org/Graphics/SVG/1.1/DTD/svg11.dtd">
<!-- Creator: CorelDRAW X7 -->
<?xml-stylesheet href="12.css" type="text/css"?>
<svg xmlns="http://www.w3.org/2000/svg" xml:space="preserve" width="128px" height="127px" version="1.1" style="shape-rendering:geometricPrecision; text-rendering:geometricPrecision; image-rendering:optimizeQuality; fill-rule:evenodd; clip-rule:evenodd"
viewBox="0 0 975839 964922"
 xmlns:xlink="http://www.w3.org/1999/xlink">
 <g id="Capa_x0020_1">
  <metadata id="CorelCorpID_0Corel-Layer"/>
  <path class="fil0" d="M844217 699969c2963,0 3715,2448 3715,5532 0,3171 -752,5788 -3715,5788l-102 0c0,277 0,554 0,850 0,13738 -11145,24936 -24965,24936 -13787,0 -24956,-11198 -24956,-24936 0,-296 0,-573 29,-869 -73,0 -175,19 -277,19 -2996,0 -3943,-2496 -3943,-5584 0,-3113 947,-5736 3943,-5736 296,0 622,54 928,102 -1375,-2447 -2200,-5089 -2200,-7925 0,-2700 723,-5220 2020,-7556 918,-1695 -1428,-9159 -126,-10800 1248,-1574 2918,1714 5113,1374 918,-204 -2151,-6910 -1296,-6260 7498,5536 15758,3070 20940,3264 13043,-5507 26631,8925 26631,19978 0,2788 -767,5429 -2195,7823 175,0 325,0 456,0zm-10256 40146l-15127 11068c0,0 -175,0 -21396,-13884 -18454,7182 -24961,23936 -26733,37626l62562 0 0 -32313 121 -457c204,-694 398,-1369 573,-2040zm80448 -56627c-326,-102 -632,-122 -957,-122 3924,-8556 8008,-18356 -2734,-24490 150,-10698 -7241,-18254 -11650,-15083 -5803,6731 -16633,10004 -32187,9975 -5487,4293 -7852,11922 -5060,24936 267,942 1165,3011 1991,4929 -651,-267 -1326,-340 -1976,-145 -2259,645 -3288,3991 -2336,7449 918,3171 3142,5390 5259,5269l0 175c3540,13913 12718,23785 23518,23785 10742,0 19920,-9770 23461,-23712l48 -248c2045,-151 4162,-2215 4987,-5269 943,-3458 -102,-6804 -2364,-7449zm-43245 37329c5765,0 10975,21644 16715,21644 5755,0 11966,-21644 17677,-21644 18521,2685 32089,9149 35547,23018l0 33702 -104044 0 0 -34425c3560,-13797 17400,-19206 34105,-22295zm-228570 -597591c163867,62372 280361,220907 280361,406695 0,21090 -1549,41806 -4443,62105 -9445,-4307 -19420,-7629 -29817,-9926 2166,-17074 3317,-34483 3317,-52179 0,-170030 -105078,-315530 -253813,-375174 2569,-10125 4040,-20692 4395,-31521zm137658 728844c-77218,70118 -179800,112852 -292328,112852 -113178,0 -216260,-43283 -293653,-114095 9072,-5439 17502,-11801 25175,-19032 71390,63582 165396,102184 268478,102184 102524,0 196132,-38199 267401,-101135 7556,7260 15928,13719 24927,19226zm-723148 -261986c-2720,-19673 -4147,-39743 -4147,-60163 0,-191159 123313,-353501 294731,-411877l-49 578c0,10698 1151,21042 3293,31045 -155689,56148 -267051,205179 -267051,380254 0,16972 1068,33706 3088,50140 -10392,2292 -20391,5657 -29865,10023zm800128 17526c65500,0 118607,53107 118607,118622 0,65548 -53107,118655 -118607,118655 -65529,0 -118637,-53107 -118637,-118655 0,-65515 53108,-118622 118637,-118622zm-738615 -2064c65529,0 118636,53107 118636,118607 0,65559 -53107,118666 -118636,118666 -65500,0 -118617,-53107 -118617,-118666 0,-65500 53117,-118607 118617,-118607zm376567 -605546c65501,0 118608,53117 118608,118622 0,65549 -53107,118636 -118608,118636 -65558,0 -118646,-53087 -118646,-118636 0,-65505 53088,-118622 118646,-118622zm-352111 673537l-2040 0c-753,0 -1418,1744 -3220,1744l-40073 0c-1593,0 -2438,-1744 -3083,-1744 -3026,0 -2773,-247 -2526,1200 700,3763 855,5210 1996,8955 277,738 175,645 850,1044 1374,801 1098,505 1569,2039 306,903 621,1846 1049,2700 796,1870 1544,3234 2549,4886 1316,2214 1991,2967 3540,4710 267,306 122,228 340,500 1200,1646 5313,4808 7289,5711 1520,719 4531,898 6580,898 4264,0 6804,-500 9844,-3015 1549,-1248 3569,-2870 4720,-4512 520,-752 1068,-1325 1612,-2122 2254,-3249 3866,-5992 5046,-9756 500,-1593 267,-1296 1641,-2064 748,-427 870,-1272 1195,-2423 796,-2846 1049,-4885 1602,-7653 122,-651 370,-1098 -480,-1098zm-37000 -37548c0,2492 224,4886 598,7406 277,1870 422,3365 748,5162 150,695 204,1671 354,2511 219,1549 1166,6963 1064,8129 -297,-369 -695,-1714 -899,-2287 -1345,-4162 -2734,-8902 -3559,-13146 -151,-869 -399,-1967 -573,-2787 -151,-826 -282,-2098 -476,-2851 -573,87 -1073,558 -1666,1049 -5220,3822 -9780,11524 -10577,18060 -48,646 -121,1695 -354,2268 -369,1199 -1345,621 -1918,3263 -447,1948 -326,4711 -326,6610 0,1447 976,1097 3468,1097 1427,0 3214,-102 4569,24 695,520 816,1773 1996,1773l38422 0c947,0 1273,-549 1744,-1195 602,-874 1073,-602 2345,-602 1073,0 5109,175 5784,-102 592,-374 427,-1938 427,-2515 0,-9276 -2122,-6110 -2496,-9203 -777,-6303 -2447,-9829 -6060,-14816 -826,-1093 -5061,-5580 -6260,-5624 -146,166 -1000,4784 -1122,5405 -320,1919 -777,3565 -1248,5410 -476,1671 -947,3516 -1496,5240l-1767 4837c-102,-675 825,-6032 927,-6857l1389 -9533c175,-1165 204,-2336 326,-3438 223,-1918 471,-4764 -1020,-5682 -2642,-1549 -9130,-2569 -12199,-2224 -2938,350 -6187,806 -8872,2195 -675,296 -1273,1345 -1273,2423zm-24742 110755l486 7362c44,593 -58,1195 0,1768 44,670 238,723 223,1670 0,1326 195,2390 195,3613 0,1302 126,2273 174,3468 102,1150 131,2394 224,3588 24,1224 -78,1030 1826,1875 1267,544 6774,2967 7570,3569 1724,1340 1428,3958 1428,6007l0 13884c0,296 -146,427 296,427l48106 0c544,0 325,-204 325,-1476l0 -14782c0,-2792 738,-3987 3380,-5089l5813 -2662c1724,-704 1622,-500 1743,-2520 54,-1326 175,-2719 233,-3967 0,-671 92,-1224 92,-1948 -19,-947 156,-1292 175,-2010 29,-724 -19,-1375 59,-2050 92,-650 145,-1345 145,-1976l500 -8027c170,-1918 -529,-1846 -2253,-1817l-67685 0c-1428,0 -3055,-296 -3055,1093zm-6478 47231l11971 0c1194,0 2389,-1000 2787,-1743 573,-1122 355,-2817 355,-4215 0,-2967 204,-6483 0,-9373 -180,-2923 -2618,-3598 -4769,-4569 -913,-374 -6104,-2618 -6478,-2943 -399,-423 -277,-1326 -277,-1991l-296 -4264c-297,-3671 -399,-7304 -773,-10951 -145,-1490 -747,-7833 -500,-8775 476,-2214 2467,-4458 4944,-4458l72027 0c704,0 1500,321 1947,544 724,374 1000,578 1501,1078 1889,1889 1641,3808 1374,6304l-559 8027c-72,869 -223,1622 -223,2569 29,1044 -194,1899 -194,2816 0,972 -73,1768 -175,2594l-296 5536c-78,1175 -481,1092 -1428,1520 -1297,602 -2671,1223 -3987,1796 -3020,1375 -6138,2200 -6138,5415l0 11791c0,995 427,1743 947,2292 500,500 1447,1000 2243,1000l11922 0c724,0 3094,-650 3764,-1000 1175,-651 6434,-5565 7556,-6658 1675,-1520 3166,-3084 4570,-4914 1641,-2064 2612,-3788 2612,-7124 0,-3987 -1296,-8086 -1918,-11704 -175,-971 -296,-1860 -529,-2816l-2715 -14404c-549,-3744 -1520,-7629 -2170,-11421 -122,-826 -1865,-10504 -2273,-11451 -869,-1889 -3662,-3788 -5531,-4633 -2424,-1049 -4934,-2020 -7425,-2875 -3545,-1214 -8455,-3380 -12248,-4706 -1194,-427 -6784,-2821 -7527,-2792 -398,520 -1326,2642 -1651,3365 -2540,5886 -5211,11597 -7896,17429 -602,1341 -2496,6032 -3200,6935 -418,-976 -738,-7114 -797,-8974 -102,-2123 -947,-7435 -650,-9057 1728,-8931 1447,-7411 -1919,-7411l-5978 0c-1204,0 -2491,-592 -2976,530 -238,592 806,5783 1000,6701 282,1326 -515,9358 -694,10878 -204,1666 -379,6133 -724,7333 -379,-476 -1297,-2749 -1593,-3395l-11077 -24363c-947,78 -1695,549 -2496,855l-4186 1592c-1122,476 -2190,845 -3312,1273 -1151,427 -2224,918 -3365,1326l-10028 3836c-1195,471 -2171,845 -3312,1267 -423,199 -1146,549 -1471,724 -1448,918 -2720,1821 -3895,3045 -1268,1369 -1622,5337 -2020,7255 -93,651 -175,1272 -369,1967 -78,544 -282,1354 -374,1971 -204,1302 -500,2598 -724,3812l-5512 29099c-801,3792 -2423,10047 -272,13645 889,1569 1919,2642 2914,4016 277,399 797,821 1122,1147 971,966 2472,2734 3521,3413 1816,1248 4385,4488 6230,5337 646,326 2890,947 3613,947zm398182 -679267c1093,694 3793,3661 6862,6007 1462,1020 2287,1845 3764,2792 1447,971 2365,2093 4205,2448 -592,2437 -1462,1845 -3909,5458 3642,5536 5191,4264 12393,4264 1296,0 4536,-4293 4691,-5041 -1501,-2244 -2773,-1743 -4337,-4681 695,-957 5653,-4546 7027,-5488 3613,-2700 6032,-5686 6682,-6157 2613,5536 2195,4356 224,11144l-5167 19343c-593,2496 -6274,24392 -7100,25514l-2020 -32595 -8202 0 -724 16337c0,5089 -325,5113 -325,8080 -151,1389 0,2938 0,4356 -175,1773 -500,2079 -500,4172l-593 -1176c-1976,-5137 -5987,-20541 -7954,-26709 -1447,-4589 -2802,-9294 -4244,-14034 -4386,-13485 -1996,-8824 -773,-14034zm-7760 -34984c0,2112 -3540,-151 -3540,5385 0,3162 1977,6182 2652,8698 888,3142 1670,5735 5555,5735 53,4312 2020,3020 2797,10421 326,2977 -175,1676 -1428,4570 -2714,6629 -2389,5313 -10965,8896 -21600,8800 -32046,15938 -31667,42293 0,5283 0,12893 4191,16351l118787 0c4186,-3458 4186,-11068 4186,-16351 403,-27627 -11140,-33940 -33566,-43011 -2040,-802 -6580,-2244 -7721,-3570 -777,-1019 -1399,-2821 -1826,-4016 -1020,-2539 -767,-3112 -2317,-3559 0,-3599 1695,-7508 3142,-10873 695,-1875 1171,-1078 2744,-1996 1991,-1044 5415,-10601 5415,-14811 0,-2142 -1428,-3191 -3570,-3439 0,-3617 1195,-8085 428,-11246l-53297 0 0 10523zm9310 -41316l0 12868c0,2064 417,3011 -777,3880 -1069,-2243 -399,-11713 -399,-15180 -1743,500 -2719,2195 -3812,3613 -3598,4837 -5711,9800 -5885,16686 -3720,0 -5813,252 -5813,3865 0,2895 3540,3414 6536,3414l54933 0c9946,0 6925,-7279 2715,-7279l-1918 0c0,-7231 -3366,-13515 -7557,-18677 -796,-874 -1073,-1272 -2195,-1622l0 14811 -1121 0 0 -16379c-3142,-1652 -7688,-4968 -12117,-5041l0 22144c0,971 -305,1224 -1175,1224l-9401 0 0 -23368c-5507,73 -10718,4715 -12014,5041zm12839 -9402l0 26505 8576 0 0 -27627c0,-2122 -3987,-1530 -6658,-1530 -1194,0 -1918,1448 -1918,2652zm-105194 261165c-73115,33537 -127271,101256 -142053,182767l-13418 0c14880,-86547 71910,-158612 149129,-194320l6342 11553zm211345 -13340c79064,35256 137712,108215 152824,196107l-13422 0c-15132,-83652 -71833,-152751 -147837,-185307l8435 -10800zm61684 443763c-45760,38072 -104151,60988 -168762,60988 -64529,0 -124348,-23538 -170374,-62538l10950 -8100c43308,35829 98911,57444 159424,57444 60595,0 116169,-21469 159433,-57298l9329 9504zm-332498 -66112l17574 0c1744,0 3516,-1477 4119,-2598 878,-1656 543,-4104 543,-6202 0,-4346 253,-9547 -14,-13791 -272,-4274 -3866,-5294 -7037,-6712 -1335,-587 -9013,-3841 -9494,-4331 -631,-622 -427,-1962 -446,-2972l-442 -6250c-437,-5425 -578,-10752 -1122,-16132 -223,-2176 -1049,-11519 -753,-12937 695,-3230 3618,-6556 7260,-6556l106093 0c1001,0 2200,500 2856,806 1049,510 1456,864 2180,1603 2797,2792 2438,5618 2040,9299l-836 11810c-73,1297 -286,2390 -286,3783 10,1530 -287,2778 -287,4152 -19,1438 -160,2594 -272,3846l-461 8096c-92,1733 -680,1631 -2088,2248 -1899,855 -3987,1802 -5866,2642 -4458,2015 -9028,3210 -9028,7954l0 17400c0,1437 583,2559 1369,3331 714,724 2161,1511 3312,1511l17594 0c1001,0 4487,-947 5459,-1448 1792,-956 9513,-8240 11169,-9809 2447,-2268 4628,-4579 6740,-7245 2419,-3060 3827,-5585 3827,-10553 0,-5827 -1899,-11873 -2797,-17176 -253,-1447 -481,-2793 -797,-4143l-4016 -21211c-796,-5580 -2258,-11252 -3195,-16832 -204,-1214 -2729,-15452 -3346,-16856 -1243,-2777 -5381,-5570 -8158,-6813 -3507,-1554 -7212,-2957 -10903,-4205 -5210,-1773 -12431,-4988 -18031,-6945 -1787,-621 -10013,-4152 -11140,-4137 -568,801 -1903,3904 -2355,4982 -3763,8654 -7697,17065 -11616,25631 -898,1962 -3729,8887 -4701,10179 -611,-1404 -1102,-10431 -1223,-13204 -141,-3103 -1380,-10927 -938,-13301 2540,-13146 2132,-10922 -2806,-10922l-8853 0c-1715,0 -3652,-908 -4366,782 -354,860 1175,8498 1471,9873 437,1971 -777,13762 -1029,16035 -287,2418 -534,9013 -1054,10747 -539,-661 -1908,-3997 -2365,-4954l-16268 -35853c-1399,53 -2477,796 -3691,1238l-6143 2346c-1670,680 -3253,1253 -4953,1884 -1632,612 -3205,1297 -4895,1918l-14758 5672c-1787,724 -3205,1205 -4895,1904 -617,267 -1695,738 -2176,1034 -2107,1345 -3977,2671 -5720,4507 -1899,2010 -2409,7823 -2967,10640 -185,937 -287,1874 -510,2933 -156,787 -442,1952 -573,2816 -326,1982 -763,3876 -1088,5672l-8110 42847c-1185,5570 -3530,14787 -437,20090 1355,2306 2831,3855 4312,5895 428,563 1171,1204 1690,1714 1379,1408 3584,3977 5172,5060 2686,1802 6430,6508 9149,7833 962,457 4293,1375 5376,1375zm9494 -69536l694 10820c83,869 -29,1767 44,2622 68,971 306,1083 291,2467 -19,1908 297,3550 297,5283 9,1880 194,3375 276,5119 93,1695 165,3530 287,5293 102,1787 -54,1520 2714,2734 1856,806 9985,4346 11165,5274 2540,2001 2093,5803 2093,8814l-34 20430c0,510 -190,680 471,680l70813 0c806,0 500,-335 500,-2181l0 -21755c0,-4099 1058,-5896 4958,-7498l8586 -3895c2486,-1039 2345,-753 2549,-3744 131,-1977 243,-4007 306,-5862 29,-981 146,-1777 146,-2836 -5,-1408 252,-1898 301,-3020 34,-1020 -58,-1967 53,-2948 112,-966 224,-2001 233,-2918l685 -11811c326,-2831 -743,-2690 -3283,-2690l-99658 0c-2059,0 -4487,-447 -4487,1622zm36455 -163051c0,3671 292,7207 826,10858 398,2778 670,4968 1112,7610 189,1039 306,2448 519,3691 326,2306 1734,10280 1579,12014 -418,-568 -1040,-2569 -1316,-3433 -2006,-6119 -4026,-13059 -5260,-19338 -238,-1238 -563,-2865 -806,-4093 -247,-1224 -432,-3070 -748,-4157 -845,97 -1549,791 -2447,1486 -7649,5672 -14389,17025 -15554,26592 -102,928 -190,2516 -467,3341 -592,1777 -2020,933 -2909,4856 -631,2836 -437,6886 -437,9742 0,2112 1448,1568 5090,1568 2088,0 4730,-141 6721,44 1000,762 1223,2588 2938,2588l56530 0c1452,0 1943,-767 2632,-1762 870,-1248 1584,-870 3429,-870 1622,0 7546,267 8508,-150 903,-530 670,-2836 670,-3681 -10,-13690 -3142,-8970 -3700,-13568 -1122,-9261 -3589,-14491 -8916,-21775 -1195,-1642 -7474,-8271 -9232,-8353 -189,316 -1457,7046 -1632,8027 -509,2773 -1160,5221 -1884,7955 -650,2481 -1364,5191 -2141,7672l-2603 7129c-194,-990 1165,-8867 1335,-10101l2045 -14010c233,-1753 301,-3457 476,-5031 325,-2875 747,-7075 -1511,-8391 -3841,-2278 -13398,-3798 -17919,-3283 -4322,495 -9115,1209 -13083,3181 -971,500 -1845,2049 -1845,3642zm54462 55278l-3011 0c-1151,0 -2088,2496 -4749,2496l-58993 0c-2336,0 -3603,-2496 -4550,-2496 -4424,0 -4108,-379 -3720,1753 1049,5536 1282,7648 2977,13146 354,1102 243,1039 1233,1592 2001,1132 1593,724 2307,2977 437,1370 908,2715 1496,4007 1224,2724 2326,4764 3788,7162 1937,3210 2967,4395 5186,6935 408,461 209,325 544,787 1743,2355 7813,7017 10698,8382 2263,1063 6721,1277 9727,1277 6245,0 10028,-704 14486,-4419 2243,-1846 5230,-4211 6954,-6658 748,-1064 1539,-1967 2370,-3142 3283,-4701 5701,-8790 7420,-14331 719,-2336 408,-1947 2428,-3049 1064,-583 1258,-1826 1743,-3531 1176,-4191 1574,-7221 2351,-11290 189,-986 568,-1598 -685,-1598zm172487 106559c-6386,0 -11577,5172 -11577,11567 0,6415 5171,11587 11577,11587 6415,0 11587,-5172 11587,-11587 0,-6395 -5192,-11567 -11587,-11567zm9819 -18196c1520,427 2972,1000 4366,1685l10198 -10188 13893 13917 -9843 9815c806,1520 1500,3079 2059,4710l13811 0 0 19673 -13573 0c-564,1704 -1234,3355 -2050,4948l9596 9586 -13893 13894 -9727 -9713c-1530,777 -3152,1428 -4837,1928l0 13821 -19643 0 0 -14297c-1520,-524 -2967,-1175 -4376,-1927l-10178 10188 -13899 -13894 10543 -10533c-612,-1296 -1151,-2632 -1607,-4001l-14957 0 0 -19673 15200 0c446,-1296 976,-2559 1578,-3773l-10757 -10752 13899 -13917 10649 10664c1243,-661 2550,-1224 3905,-1734l0 -14962 19643 0 0 14535zm-9819 11087c10329,0 18691,8372 18691,18676 0,10329 -8362,18702 -18691,18702 -10325,0 -18687,-8373 -18687,-18702 0,-10304 8362,-18676 18687,-18676zm-119778 -59358l0 0c2049,1384 7556,7435 13787,12146 2836,2141 4735,3569 7711,5609 2900,2030 4745,4215 8314,5060 -1131,4837 -2957,3642 -7843,11004 7401,11067 10587,8639 25117,8639 2539,0 9037,-8799 9416,-10227 -3079,-4584 -5570,-3642 -8630,-9416 1307,-1967 11242,-9076 14015,-11135 7372,-5449 12170,-11612 13462,-12457 5385,11228 4487,8834 500,22519l-10392 39126c-1234,4948 -12782,49159 -14443,51568l-3928 -66049 -16482 0 -1588 33022c73,10324 -622,10504 -797,16482 -82,2836 175,5876 20,8687 -194,3584 -782,4254 -782,8639l-1277 -2637c-3968,-10270 -12146,-41442 -16074,-53874 -2987,-9280 -5599,-18779 -8649,-28302 -8712,-27272 -3914,-17861 -1457,-28404zm-15719 -70749c0,4453 -7056,-204 -7056,10984 0,6464 3948,12340 5332,17478 1704,6323 3316,11626 11150,11626 184,8886 4132,6011 5691,21143 529,5172 1602,748 -1705,6435 -908,1554 -446,898 -1194,2734 -5556,13534 -4895,10800 -22081,17982l-753 306c2224,835 4429,1734 6600,2705 3957,1753 8852,5274 10659,9290 1486,3336 3016,13889 3700,18041 967,5681 2399,11198 3191,16807l3967 20974c350,1476 593,2913 850,4414 1039,6119 2875,11679 2875,17992 0,5667 -1462,9261 -4895,13612 -2214,2787 -4633,5347 -7231,7784 -1704,1584 -4458,4303 -7090,6649l111925 0 4997 0 452 0 52034 0c5682,-4774 7639,-11942 7576,-23262 -30,-3477 339,-5210 611,-7425 -9168,14695 -25475,24456 -44089,24456 -28729,0 -51956,-23232 -51956,-51932 0,-28671 23227,-51937 51956,-51937l1671 15c-6852,-3472 -13952,-6488 -21057,-9436l-34 -34 -1141 -476 -743 -296 -277 -112 0 10c-4458,-1704 -12412,-4346 -14413,-6959 -1505,-1976 -2812,-5638 -3763,-8037 -1977,-5084 -1579,-6230 -4691,-7065 0,-8445 1427,-9392 3909,-14943 1049,-2336 1437,-4681 2413,-7027 1564,-3822 2307,-2103 5541,-3885 4201,-2306 10883,-21712 10883,-29977 0,-4545 -2788,-6731 -7051,-7085 0,-5755 1408,-12534 1296,-18318l-108059 0 0 16769zm14486 -79350c-2390,1476 -3939,4152 -5634,6434 -7298,9853 -11674,19809 -11994,33586 -7474,0 -11767,665 -11767,7862 0,6070 7221,7090 13340,7090l110682 0c19998,0 14000,-14952 5497,-14952l-3928 0c0,-14515 -6712,-27161 -15147,-37514 -1083,-1375 -1792,-2234 -3040,-2836l0 32016 -5944 0 0 -36897c-5570,-3205 -12781,-7945 -20143,-8867l0 48591 -26189 0 0 -48475c-8397,1312 -16157,7013 -19780,9169l0 36479 -5953 0 0 -31686zm30258 -22878l0 53462 17269 0 0 -55817c0,-4307 -8090,-3132 -13340,-3132 -2549,0 -3929,2836 -3929,5487zm144957 161575c1054,345 2113,743 3084,1204l7027 -7070 9669 9669 -6867 6774c626,1088 1102,2161 1481,3312l9620 0 0 13655 -9469 0c-355,1205 -855,2360 -1428,3439l6663 6682 -9669 9668 -6731 -6755c-1054,554 -2204,991 -3380,1360l0 9630 -13631 0 0 -9975c-1063,-369 -2083,-811 -3054,-1321l-7066 7061 -9659 -9668 7294 -7265c-427,-894 -806,-1884 -1102,-2856l-10373 0 0 -13655 10547 0c316,-884 661,-1782 1098,-2623l-7464 -7463 9659 -9669 7386 7376c864,-398 1734,-859 2734,-1165l0 -10402 13631 0 0 10057zm-6390 6721c7862,0 14306,6396 14306,14238 0,7901 -6444,14326 -14306,14326 -7858,0 -14273,-6425 -14273,-14326 0,-7842 6415,-14238 14273,-14238zm0 6250c4414,0 8075,3589 8075,7988 0,4444 -3661,8047 -8075,8047 -4395,0 -8028,-3603 -8028,-8047 0,-4399 3633,-7988 8028,-7988z"/>
 </g>
</svg>
