<?xml version="1.0" encoding="UTF-8"?>
<!DOCTYPE svg PUBLIC "-//W3C//DTD SVG 1.1//EN" "http://www.w3.org/Graphics/SVG/1.1/DTD/svg11.dtd">
<!-- Creator: CorelDRAW X7 -->
<?xml-stylesheet href="13.css" type="text/css"?>
<svg xmlns="http://www.w3.org/2000/svg" xml:space="preserve" width="128px" height="83px" version="1.1" style="shape-rendering:geometricPrecision; text-rendering:geometricPrecision; image-rendering:optimizeQuality; fill-rule:evenodd; clip-rule:evenodd"
viewBox="0 0 1229454 793149"
 xmlns:xlink="http://www.w3.org/1999/xlink">
 <g id="Capa_x0020_1">
  <metadata id="CorelCorpID_0Corel-Layer"/>
  <g id="_2103197424480">
   <path class="fil0" d="M112940 0l1003580 0c62160,0 112934,50780 112934,112940l0 567269c0,62191 -50743,112940 -112934,112940l-1003580 0c-62197,0 -112940,-50749 -112940,-112940l0 -567269c0,-62160 50780,-112940 112940,-112940zm0 25700l1003580 0c48000,0 87234,39270 87234,87240l0 567269c0,48000 -39234,87240 -87234,87240l-1003580 0c-48001,0 -87240,-39240 -87240,-87240l0 -567269c0,-47970 39239,-87240 87240,-87240z"/>
   <path class="fil0" d="M112940 81933c-16939,0 -31007,14068 -31007,31007l0 567269c0,16969 14037,31006 31007,31006l1003580 0c16963,0 31000,-14037 31000,-31006l0 -567269c0,-16939 -14067,-31007 -31000,-31007l-1003580 0zm637822 314580l-296954 -176161 0 352445 296954 -176284z"/>
  </g>
 </g>
</svg>
