<?xml version="1.0" encoding="UTF-8"?>
<!DOCTYPE svg PUBLIC "-//W3C//DTD SVG 1.1//EN" "http://www.w3.org/Graphics/SVG/1.1/DTD/svg11.dtd">
<!-- Creator: CorelDRAW X7 -->
<?xml-stylesheet href="14.css" type="text/css"?>
<svg xmlns="http://www.w3.org/2000/svg" xml:space="preserve" width="128px" height="163px" version="1.1" style="shape-rendering:geometricPrecision; text-rendering:geometricPrecision; image-rendering:optimizeQuality; fill-rule:evenodd; clip-rule:evenodd"
viewBox="0 0 1293244 1646233"
 xmlns:xlink="http://www.w3.org/1999/xlink">
 <g id="Capa_x0020_1">
  <metadata id="CorelCorpID_0Corel-Layer"/>
  <path class="fil0" d="M194333 1646233l125929 0c12640,0 25188,-10596 29398,-18382 6048,-11832 3667,-29653 3667,-44336 0,-31268 2208,-68238 0,-98657 -1788,-30725 -27445,-37868 -50120,-48126 -9615,-3823 -64250,-27437 -68114,-30840 -4260,-4515 -2942,-13958 -2942,-21019l-3106 -44846c-3189,-38585 -4252,-76881 -8165,-115252 -1574,-15655 -7869,-82327 -5232,-92330 4976,-23350 25954,-46923 51990,-46923l757952 0c7357,0 15778,3403 20458,5784 7572,3832 10513,6040 15786,11280 19915,19906 17278,40076 14469,66368l-5875 84453c-808,9145 -2340,17063 -2340,27017 297,11015 -2043,19996 -2043,29694 0,10167 -717,18596 -1912,27231l-3065 58326c-766,12301 -5059,11403 -15020,15918 -13653,6337 -28080,12846 -41905,18934 -31870,14460 -64580,23095 -64580,56967l0 124150c0,10382 4465,18250 9912,23993 5273,5364 15226,10596 23614,10596l125419 0c7621,0 32594,-6896 39614,-10596 12417,-6764 67727,-58499 79518,-69985 17698,-16042 33353,-32463 48076,-51743 17311,-21735 27528,-39861 27528,-74961 0,-41946 -13620,-85087 -20170,-123128 -1870,-10209 -3189,-19610 -5570,-29695l-28640 -151546c-5742,-39441 -15910,-80284 -22798,-120236 -1277,-8635 -19618,-110448 -23960,-120401 -9055,-19915 -38412,-39912 -58202,-48843 -25435,-10983 -51859,-21192 -78109,-30164 -37275,-12812 -88968,-35611 -128830,-49568 -12590,-4466 -71394,-29653 -79221,-29357 -4211,5405 -13949,27783 -17402,35396 -26670,61944 -54799,122025 -83044,183416 -6344,14122 -26300,63435 -33616,72967 -4466,-10299 -16891,-65263 -17402,-84922 -1104,-22255 -1021,-30889 2134,-47994 18077,-93896 15268,-77903 -20211,-77903l-62973 0c-12590,0 -26160,-6295 -31268,5537 -2513,6212 8511,60839 10554,70578 2975,13916 4128,44715 2250,60674 -2126,17566 -13570,61391 -17187,74030 -3996,-5026 -13653,-28845 -16759,-35701l-116578 -256374c-9912,717 -17830,5701 -26251,8972l-44121 16767c-11783,4977 -22930,8849 -34803,13356 -12079,4515 -23400,9706 -35438,13999l-105471 40331c-12549,4977 -22889,8891 -34844,13406 -4507,2043 -12038,5701 -15490,7613 -15226,9615 -28591,19057 -41007,31993 -13323,14427 -17064,56159 -21315,76370 -898,6856 -1838,13365 -3832,20640 -807,5784 -2941,14295 -3913,20804 -2126,13612 -5232,27314 -7572,40076l-58120 306198c-8380,39911 -25444,105768 -2728,143595 9319,16503 20129,27824 30593,42243 2892,4219 8297,8684 11790,12128 10291,10127 26037,28764 37094,35866 19066,13150 46124,47187 65568,56201 6765,3402 30379,9961 37951,9961zm68238 -497062l5067 77516c511,6212 -552,12548 0,18596 511,7061 2554,7613 2299,17566 0,13957 2035,25146 2035,38082 0,13570 1450,23869 1878,36418 1104,12087 1401,25229 2340,37827 297,12804 -766,10760 19272,19692 13356,5701 71303,31186 79641,37571 18168,14081 15103,41609 15103,63179l0 146100c0,3106 -1574,4515 3065,4515l506207 0c5702,0 3362,-2175 3362,-15531l0 -155550c0,-29398 7827,-41947 35610,-53605l61144 -27998c18160,-7399 17097,-5273 18374,-26547 552,-13908 1829,-28590 2431,-41781 0,-6979 972,-12763 972,-20417 -165,-9962 1623,-13571 1879,-21192 255,-7572 -256,-14460 552,-21570 972,-6806 1573,-14123 1573,-20722l5273 -84536c1747,-20161 -5619,-19354 -23696,-19057l-712339 0c-14937,0 -32042,-3148 -32042,11444zm-14081 -1039135c1829,12763 511,34927 511,48711 0,35487 2933,18679 -18893,31491 -10036,5825 -20335,16635 -14930,33311 4466,13694 17995,16421 28039,22296 255,9187 1738,65132 -1105,68024 -6813,4004 -20087,-2892 -20087,5405 0,138313 -1277,281949 214,419497l73734 304 807 -423797c-4045,-132 -16676,1104 -19230,-1533 -3106,-5067 -1829,-57823 -849,-67991 6163,-4548 12886,-4292 20590,-11362 14633,-13529 11782,-29439 -3403,-41732 -7827,-6130 -15399,-5702 -22930,-9656l-305 -66755c10044,-1409 70966,10637 84964,13702 8849,1993 16982,4169 28467,5232 1656,19057 1615,156011 808,175967l-3189 39483 -6130 1656c-13018,2513 -20508,9277 -25822,21784 -10678,25106 -5364,62454 13908,86283 9871,12210 16297,17912 36253,19527 40035,63649 33056,106963 104532,177162 13743,13529 18086,32636 15828,52501 -2258,19823 -12895,15358 20079,43652 59101,50754 167464,44245 223533,-8849 15317,-14634 8173,-11016 8132,-33147 0,-11445 849,-21101 3189,-31268 3617,-15911 3403,-14930 11527,-24035 63953,-71608 63863,-100371 102200,-174146 1187,-2381 5356,-2546 9615,-4169 3568,-1228 6295,-2637 8932,-4589 14938,-10341 26934,-30164 30040,-48802 2719,-16511 3568,-32248 -1829,-47228 -8338,-23012 -20252,-21784 -27700,-25401l-173 -202342c0,-18464 -5356,-14039 44714,-22979 20129,-3485 37489,-7399 56761,-10975 19610,-3741 38420,-6806 57478,-10760 18975,-4087 39524,-7020 58120,-11362 -6344,-3362 -111857,-23483 -129003,-26976 -109336,-22675 -219578,-43734 -329260,-65264 -54033,-10554 -406182,74286 -494079,88746 -22765,3790 1359,5578 9953,7448l65989 12936z"/>
 </g>
</svg>
