<?xml version="1.0" encoding="UTF-8"?>
<!DOCTYPE svg PUBLIC "-//W3C//DTD SVG 1.1//EN" "http://www.w3.org/Graphics/SVG/1.1/DTD/svg11.dtd">
<!-- Creator: CorelDRAW X7 -->
<?xml-stylesheet href="15.css" type="text/css"?>
<svg xmlns="http://www.w3.org/2000/svg" xml:space="preserve" width="128px" height="128px" version="1.1" style="shape-rendering:geometricPrecision; text-rendering:geometricPrecision; image-rendering:optimizeQuality; fill-rule:evenodd; clip-rule:evenodd"
viewBox="0 0 2302814 2302663"
 xmlns:xlink="http://www.w3.org/1999/xlink">
 <g id="Capa_x0020_1">
  <metadata id="CorelCorpID_0Corel-Layer"/>
  <g id="_2102959155744">
   <path class="fil0" d="M1444686 374764c16638,5865 33044,12238 49312,19131l264190 -264109 414701 414701 -254214 254214c9375,19489 18022,39279 25862,59438l358277 0 0 586467 -351823 0c-7990,21983 -16926,43608 -26751,64864l248649 248638 -414701 414781 -251951 -252021c-20147,9017 -40745,17146 -61551,24477l0 357318 -586547 0 0 -370503c-17077,-6893 -33933,-14363 -50490,-22353l-263012 263001 -414701 -414700 272757 -272757c-5646,-13486 -11072,-27041 -16049,-40745l-386644 0 0 -586467 393237 0c4688,-11950 9595,-23750 14802,-35400l-278103 -278252 414701 -414701 274800 274951c12758,-5935 25655,-11581 38702,-16776l0 -387961 586547 0 0 374764zm-275759 382095c-222706,0 -403131,180495 -403131,403121 0,222706 180425,403131 403131,403131 222707,0 403121,-180425 403121,-403131 0,-222626 -180495,-403121 -403121,-403121zm227094 -346777c37454,11292 73801,25436 108680,41923l253487 -253406 345888 345888 -244839 244839c20159,37443 37374,76571 51298,117467l343625 0 0 489159 -337979 0c-13555,42869 -30631,83984 -50929,123332l238824 238824 -345888 345968 -241687 -241756c-38551,19119 -78777,35099 -120480,47776l0 343914 -489228 0 0 -355494c-37593,-13266 -73870,-29454 -108600,-48065l-253556 253545 -345888 -345888 262123 -262124c-15310,-32178 -28506,-65661 -39348,-100032l-372859 0 0 -489159 378644 0c11072,-32536 24188,-63976 39278,-94318l-267838 -267988 345888 -345888 264986 265136c31289,-16198 63687,-30342 97170,-42211l0 -372859 489228 0 0 361417zm-227094 298112c249527,0 451786,202339 451786,451786 0,249596 -202259,451785 -451786,451785 -249596,0 -451785,-202189 -451785,-451785 0,-249447 202189,-451786 451785,-451786z"/>
   <path class="fil0" d="M1333154 111532l-363483 0 0 354397 -41842 14871c-30631,10853 -60465,23819 -89330,38771l-40825 21175 -253037 -253187 -256997 256928 255380 255530 -20147 40457c-13924,27987 -25943,56943 -36058,86547l-14513 42650 -360758 0 0 363403 356071 0 13855 43966c9964,31439 21983,62151 36196,91904l19050 40075 -249076 249089 256997 256997 242126 -242115 41103 22053c32097,17226 65522,32027 99813,44185l41992 14813 0 337090 363483 0 0 -327645 44555 -13555c38101,-11580 75186,-26232 110874,-43966l40445 -20078 229160 229218 256998 -256997 -226886 -226805 21036 -40815c18831,-36496 34510,-74389 46899,-113517l13855 -43897 321192 0 0 -363403 -325741 0 -14513 -42581c-12677,-37304 -28507,-73350 -47188,-107941l-22133 -41184 233479 -233478 -256998 -256998 -240371 240291 -40006 -18912c-32316,-15310 -65741,-28287 -99963,-38540l-44694 -13485 0 -345311zm-164227 533795c284188,0 514653,230465 514653,514653 0,284268 -230396,514663 -514653,514663 -284337,0 -514663,-230326 -514663,-514663 0,-284188 230395,-514653 514663,-514653z"/>
  </g>
 </g>
</svg>
