<?xml version="1.0" encoding="UTF-8"?>
<!DOCTYPE svg PUBLIC "-//W3C//DTD SVG 1.1//EN" "http://www.w3.org/Graphics/SVG/1.1/DTD/svg11.dtd">
<!-- Creator: CorelDRAW X7 -->
<?xml-stylesheet href="16.css" type="text/css"?>
<svg xmlns="http://www.w3.org/2000/svg" xml:space="preserve" width="128px" height="128px" version="1.1" style="shape-rendering:geometricPrecision; text-rendering:geometricPrecision; image-rendering:optimizeQuality; fill-rule:evenodd; clip-rule:evenodd"
viewBox="0 0 4661593 4661686"
 xmlns:xlink="http://www.w3.org/1999/xlink">
 <g id="Capa_x0020_1">
  <metadata id="CorelCorpID_0Corel-Layer"/>
  <g id="_2067430071872">
   <path class="fil0" d="M2330785 0c1286997,0 2330808,1043788 2330808,2330785 0,1286997 -1043695,2330901 -2330808,2330901 -1287114,0 -2330785,-1043788 -2330785,-2330901 0,-1287114 1043671,-2330785 2330785,-2330785zm0 271343c1137340,0 2059465,922125 2059465,2059442 0,1137317 -922125,2059581 -2059465,2059581 -1137317,0 -2059442,-922264 -2059442,-2059581 0,-1137317 922125,-2059442 2059442,-2059442z"/>
   <path class="fil0" d="M2330831 542639c987545,0 1788053,800625 1788053,1788169 0,987521 -800508,1788169 -1788053,1788169 -987660,0 -1788168,-800648 -1788168,-1788169 0,-987544 800508,-1788169 1788168,-1788169zm-367869 2397808l642023 0 0 564500 -642023 0 0 -564500zm619930 -158067l-599347 0 0 -60099c0,-102218 11801,-184969 34847,-248507 23208,-63933 57080,-121965 102636,-174793 45697,-52573 148472,-145034 308188,-277871 84934,-69299 127332,-133371 127332,-190730 0,-58171 -17145,-103310 -51574,-135021 -33895,-32245 -86049,-48298 -155348,-48298 -75317,0 -137066,24579 -186061,74108 -48832,48972 -80125,135416 -94110,258101l-609523 -75897c20862,-224206 102497,-404900 245068,-541292 142432,-137088 360738,-205412 654801,-205412 228992,0 413961,47880 554882,143524 191427,129120 287048,301590 287048,517294 0,89185 -24695,175095 -74225,258519 -48855,82727 -149982,184411 -302008,304192 -105935,83982 -173306,151771 -200603,202810 -27994,51040 -42003,117180 -42003,199372z"/>
  </g>
 </g>
</svg>
