<?xml version="1.0" encoding="UTF-8"?>
<!DOCTYPE svg PUBLIC "-//W3C//DTD SVG 1.1//EN" "http://www.w3.org/Graphics/SVG/1.1/DTD/svg11.dtd">
<!-- Creator: CorelDRAW X7 -->
<?xml-stylesheet href="17.css" type="text/css"?>
<svg xmlns="http://www.w3.org/2000/svg" xml:space="preserve" width="128px" height="122px" version="1.1" style="shape-rendering:geometricPrecision; text-rendering:geometricPrecision; image-rendering:optimizeQuality; fill-rule:evenodd; clip-rule:evenodd"
viewBox="0 0 38759427 36955326"
 xmlns:xlink="http://www.w3.org/1999/xlink">
 <g id="Capa_x0020_1">
  <metadata id="CorelCorpID_0Corel-Layer"/>
  <path class="fil0" d="M15500442 634077c-4358411,1167701 -7934289,3800400 -10336660,7225888l-5163201 -3021351 50323 8474687 -50904 8481074 7310470 -4282151 7373374 -4196214 -6570132 -3742333c1958749,-2680699 4810549,-4734870 8265263,-5660630 8044034,-2155399 16312007,2618181 18467405,10662021 2155205,8044033 -2618182,16311813 -10662215,18467211 -7259179,1945201 -14698942,-1754358 -17666485,-8404815l-3312648 887631c3479296,8461719 12784129,13227557 21857860,10796153 9854715,-2640440 15702898,-12769999 13062457,-22624714 -2640634,-9854715 -12770193,-15703091 -22624907,-13062457z"/>
 </g>
</svg>
