<?xml version="1.0" encoding="UTF-8"?>
<!DOCTYPE svg PUBLIC "-//W3C//DTD SVG 1.1//EN" "http://www.w3.org/Graphics/SVG/1.1/DTD/svg11.dtd">
<!-- Creator: CorelDRAW X7 -->
<?xml-stylesheet href="2.css" type="text/css"?>
<svg xmlns="http://www.w3.org/2000/svg" xml:space="preserve" width="128px" height="129px" version="1.1" style="shape-rendering:geometricPrecision; text-rendering:geometricPrecision; image-rendering:optimizeQuality; fill-rule:evenodd; clip-rule:evenodd"
viewBox="0 0 1176173 1179902"
 xmlns:xlink="http://www.w3.org/1999/xlink">
 <g id="Capa_x0020_1">
  <metadata id="CorelCorpID_0Corel-Layer"/>
  <g id="_2103171088128">
   <path class="fil0" d="M760881 852298l98928 0 0 -99471 83517 0 0 99471 99471 0 0 83575 -99471 0 0 98882 -83517 0 0 -98882 -98928 0 0 -83575zm140934 -157928c110169,0 199386,89246 199386,199415 0,110139 -89217,199385 -199386,199385 -110157,0 -199385,-89246 -199385,-199385 0,-110169 89228,-199415 199385,-199415z"/>
   <rect class="fil0" x="3" y="3" width="552602" height="552624" rx="59747" ry="59747"/>
   <rect class="fil0" x="623573" y="3" width="552602" height="552624" rx="59747" ry="59747"/>
   <rect class="fil0" x="3" y="627277" width="552602" height="552624" rx="59747" ry="59747"/>
  </g>
 </g>
</svg>
