<?xml version="1.0" encoding="UTF-8"?>
<!DOCTYPE svg PUBLIC "-//W3C//DTD SVG 1.1//EN" "http://www.w3.org/Graphics/SVG/1.1/DTD/svg11.dtd">
<!-- Creator: CorelDRAW X7 -->
<?xml-stylesheet href="3.css" type="text/css"?>
<svg xmlns="http://www.w3.org/2000/svg" xml:space="preserve" width="128px" height="105px" version="1.1" style="shape-rendering:geometricPrecision; text-rendering:geometricPrecision; image-rendering:optimizeQuality; fill-rule:evenodd; clip-rule:evenodd"
viewBox="0 0 1501223 1228263"
 xmlns:xlink="http://www.w3.org/1999/xlink">
 <g id="Capa_x0020_1">
  <metadata id="CorelCorpID_0Corel-Layer"/>
  <g id="_2103281171328">
   <polygon class="fil0" points="0,622686 191928,622686 191928,1228263 0,1228263 "/>
   <polygon class="fil0" points="298546,622686 599225,622686 599225,1228263 298546,1228263 "/>
   <path class="fil0" d="M1121144 187709l243229 0 0 113763 -243229 0 0 -113763zm-341250 0l243258 0 0 113763 -243258 0 0 -113763zm-327208 0l243259 0 0 113763 -243259 0 0 -113763zm-372725 -90959l243237 0 0 113740 -243237 0 0 -113740zm-79961 -96750l1501223 0 0 537376 -390216 0 0 -81024 -106618 0 0 81024 -298546 0 0 -81024 -106618 0 0 81024 -300679 0 0 -81024 -106618 0 0 81024 -191928 0 0 -537376z"/>
   <polygon class="fil0" points="705843,622686 1004389,622686 1004389,1228263 705843,1228263 "/>
   <path class="fil0" d="M1149753 889474l88109 0 0 -88587 74380 0 0 88587 88588 0 0 74433 -88588 0 0 88071 -74380 0 0 -88071 -88109 0 0 -74433zm125516 -140651c98119,0 177579,79483 177579,177602 0,98096 -79460,177579 -177579,177579 -98112,0 -177579,-79483 -177579,-177579 0,-98119 79467,-177602 177579,-177602z"/>
  </g>
 </g>
</svg>
