<?xml version="1.0" encoding="UTF-8"?>
<!DOCTYPE svg PUBLIC "-//W3C//DTD SVG 1.1//EN" "http://www.w3.org/Graphics/SVG/1.1/DTD/svg11.dtd">
<!-- Creator: CorelDRAW X7 -->
<?xml-stylesheet href="5.css" type="text/css"?>
<svg xmlns="http://www.w3.org/2000/svg" xml:space="preserve" width="128px" height="134px" version="1.1" style="shape-rendering:geometricPrecision; text-rendering:geometricPrecision; image-rendering:optimizeQuality; fill-rule:evenodd; clip-rule:evenodd"
viewBox="0 0 3221059 3361478"
 xmlns:xlink="http://www.w3.org/1999/xlink">
 <g id="Capa_x0020_1">
  <metadata id="CorelCorpID_0Corel-Layer"/>
  <g id="_2103171103488">
   <path class="fil0" d="M2911164 840420l0 840319 0 2398 -106685 70754 0 -728738 -280453 161931 0 586340 -106736 0 0 -92685 0 -555172 493874 -285147zm-616688 2036741l-111162 64183 -727732 420134 -727799 -420134 -727783 -420185 493806 -285114 480913 277636 480863 277535 480846 -277535 84553 -48824 59052 89030 -624451 360563 -961776 -555222 -280402 161931 1242178 717136 779792 -450214 59102 89080z"/>
   <polygon class="fil0" points="1455582,0 2183314,420185 2911164,840420 2417290,1125567 1936428,847881 1455582,570245 974719,847881 493806,1125567 493806,1680739 493806,2236045 0,2521159 0,1680739 0,840420 727783,420185 "/>
   <polygon class="fil0" points="1455582,874774 815924,1244106 1455582,1613371 2095273,1244106 "/>
   <path class="fil0" d="M2163832 1271821l-708250 408918 0 817902 708250 -409001 0 -817819zm-47869 82927l-612446 353656 0 707327 612446 -353655 0 -707328z"/>
   <polygon class="fil0" points="747265,1271805 1401829,1649704 1401829,2467607 747265,2089640 "/>
   <path class="fil0" d="M2720730 1968636c54122,10194 104003,32477 146707,63847l146556 -146506 85593 85543 -147814 147780c29543,42754 50115,92132 59085,145449l210202 0 0 121037 -210202 0c-8970,53318 -29492,102695 -59051,145449l147813 147780 -85542 85593 -146556 -146556c-42755,31421 -92618,53687 -146791,63931l0 204098 -121004 0 0 -201667c-56167,-8199 -108143,-29341 -152843,-60192l-140385 140386 -85593 -85593 139128 -139162c-32795,-44699 -55598,-97094 -65155,-154067l-195446 0 0 -121037 195446 0c9591,-56939 32393,-109452 65239,-154117l-139162 -139145 85593 -85510 140419 140369c44700,-30883 96642,-51976 152759,-60191l0 -201667 121004 0 0 204148zm-66697 63109c161998,0 293313,131399 293313,293313 0,161998 -131315,293313 -293313,293313 -161998,0 -293313,-131315 -293313,-293313 0,-161914 131315,-293313 293313,-293313z"/>
   <path class="fil0" d="M2496378 2278615l110625 0 0 -111162 93473 0 0 111162 111162 0 0 93473 -111162 0 0 110625 -93473 0 0 -110625 -110625 0 0 -93473zm156481 -173583c121675,0 220312,98586 220312,220278 0,121640 -98637,220311 -220312,220311 -121691,0 -220294,-98671 -220294,-220311 0,-121692 98603,-220278 220294,-220278z"/>
  </g>
 </g>
</svg>
