<?xml version="1.0" encoding="UTF-8"?>
<!DOCTYPE svg PUBLIC "-//W3C//DTD SVG 1.1//EN" "http://www.w3.org/Graphics/SVG/1.1/DTD/svg11.dtd">
<!-- Creator: CorelDRAW X7 -->
<?xml-stylesheet href="6.css" type="text/css"?>
<svg xmlns="http://www.w3.org/2000/svg" xml:space="preserve" width="128px" height="126px" version="1.1" style="shape-rendering:geometricPrecision; text-rendering:geometricPrecision; image-rendering:optimizeQuality; fill-rule:evenodd; clip-rule:evenodd"
viewBox="0 0 7348474 7241961"
 xmlns:xlink="http://www.w3.org/1999/xlink">
 <g id="Capa_x0020_1">
  <metadata id="CorelCorpID_0Corel-Layer"/>
  <path class="fil0" d="M3104769 5485497l-2028306 0 -1076463 -1864571 1076463 -1864570 2027473 0 1014859 -1756356 2153216 0 1076463 1864462 -1014171 1756464 1014171 1756610 -1076463 1864425 -2153216 0 -1014026 -1756464zm939166 -1864571l-945468 -1637819 -1890864 0 -945613 1637819 945613 1637747 1890864 0 945468 -1637747zm-739650 1756610l945650 1637674 1891045 0 945468 -1637674 -945468 -1637892 -1891045 0 -945650 1637892zm0 -3513074l945650 1637747 1891045 0 945468 -1637747 -945468 -1637892 -1891045 0 -945650 1637892zm323559 3513074l783471 1357612 1567958 0 783797 -1357612 -783797 -1357504 -1567958 0 -783471 1357504zm0 -3513074l783471 1357503 1567958 0 783797 -1357503 -783797 -1357902 -1567958 0 -783471 1357902zm93257 1756464l-784087 -1358010 -1567921 0 -784088 1358010 784088 1357866 1567921 0 784087 -1357866zm-1556078 -896829c488778,0 884588,395919 884588,884697 0,488669 -395810,884624 -884588,884624 -488742,0 -884625,-395955 -884625,-884624 0,-488778 395883,-884697 884625,-884697zm-625278 700645l438908 0 0 -441299 370567 0 0 441299 441298 0 0 370784 -441298 0 0 438727 -370567 0 0 -438727 -438908 0 0 -370784z"/>
 </g>
</svg>
