<?xml version="1.0" encoding="UTF-8"?>
<!DOCTYPE svg PUBLIC "-//W3C//DTD SVG 1.1//EN" "http://www.w3.org/Graphics/SVG/1.1/DTD/svg11.dtd">
<!-- Creator: CorelDRAW X7 -->
<?xml-stylesheet href="7.css" type="text/css"?>
<svg xmlns="http://www.w3.org/2000/svg" xml:space="preserve" width="128px" height="90px" version="1.1" style="shape-rendering:geometricPrecision; text-rendering:geometricPrecision; image-rendering:optimizeQuality; fill-rule:evenodd; clip-rule:evenodd"
viewBox="0 0 26575747 18613608"
 xmlns:xlink="http://www.w3.org/1999/xlink">
 <g id="Capa_x0020_1">
  <metadata id="CorelCorpID_0Corel-Layer"/>
  <path class="fil0" d="M9358552 2605486c1207501,-1572095 3255155,-2605486 5578188,-2605486 1837648,0 3503021,646786 4716547,1695112 -1039155,-429706 -2174207,-660673 -3316466,-660673 -2192811,0 -4368590,816703 -5911995,2367313 -468615,-143060 -958323,-215115 -1451306,-215115 -2155081,0 -4201949,1441743 -4506280,3581888 -2308098,1052387 -3986572,3181397 -4237452,5725047 -149742,-500843 -229788,-1028543 -229788,-1573667 0,-2565267 1772668,-4747990 4246360,-5559846 -9301,-90789 -14934,-183149 -14934,-275641 0,-1619520 1496503,-2932089 3342012,-2932089 656874,0 1268943,166381 1785114,453157zm1400213 2237485c1207369,-1572227 3255024,-2605486 5578056,-2605486 3617130,0 6566643,2505134 6717433,5646180 2088659,969983 3521493,2967854 3521493,5273594 0,2462949 -1632228,4571653 -3950937,5456349l-1464276 0 0 0 -2402817 0 0 -2187570 3421928 0c1269205,-608794 2208401,-1813805 2208401,-3268779 0,-1464669 -956620,-2686318 -2254647,-3289741l-1200033 -556260 -63932 -1322394c-108867,-2255956 -2514042,-3379481 -4569033,-3379481 -2763874,0 -3573503,1121035 -4679603,3227512 -2426792,-1769131 -4373439,123279 -4146009,2007566 -2139360,-313633 -3887005,1129681 -3887005,3312798 0,1454974 939064,2659985 2208531,3268779l4389946 0 0 2187570 -3155720 0 0 0 -1679653 0c-2318447,-884696 -3950675,-2993400 -3950675,-5456349 0,-2565136 1772537,-4747859 4246360,-5559846 -9432,-90658 -14935,-183150 -14935,-275641 0,-1619520 1496373,-2931958 3341882,-2931958 656874,0 1268943,166380 1785245,453157zm1292525 13770637l4769475 0 0 -4473135 2013723 7075 -2222026 -2146172 -2175780 -2160714 -2177221 2160714 -2221108 2146172 2012937 -7075 0 4473135z"/>
 </g>
</svg>
