<?xml version="1.0" encoding="UTF-8"?>
<!DOCTYPE svg PUBLIC "-//W3C//DTD SVG 1.1//EN" "http://www.w3.org/Graphics/SVG/1.1/DTD/svg11.dtd">
<!-- Creator: CorelDRAW X7 -->
<?xml-stylesheet href="8.css" type="text/css"?>
<svg xmlns="http://www.w3.org/2000/svg" xml:space="preserve" width="128px" height="106px" version="1.1" style="shape-rendering:geometricPrecision; text-rendering:geometricPrecision; image-rendering:optimizeQuality; fill-rule:evenodd; clip-rule:evenodd"
viewBox="0 0 4679156 3872782"
 xmlns:xlink="http://www.w3.org/1999/xlink">
 <g id="Capa_x0020_1">
  <metadata id="CorelCorpID_0Corel-Layer"/>
  <path class="fil0" d="M3895768 480079c183695,0 332582,148888 332582,332582 0,183789 -148887,332559 -332582,332559 -183671,0 -332558,-148770 -332558,-332559 0,-183694 148887,-332582 332558,-332582zm138972 -88997c21596,6311 42109,14389 62056,23880l144200 -144200 196554 196883 -139161 139184c11234,21384 21031,43733 29109,66648l195470 0 0 278369 -192197 0c-7960,24210 -17568,47666 -29014,70228l135793 135816 -196554 196436 -137865 -137324c-21596,10810 -44393,20065 -68391,27272l0 195564 -278039 0 0 -202323c-21690,-7537 -42202,-16698 -61843,-27390l-144295 144201 -196789 -196436 149334 -149334c-8737,-18441 -16250,-37422 -22585,-56710l-211932 0 0 -278369 215206 0c6429,-18440 13848,-36221 22373,-53460l-152396 -152372 196789 -196883 150842 150959c17780,-9255 35985,-17451 55296,-24328l0 -211932 278039 0 0 205621zm-1970999 614647l-48655 0c-18440,0 -33584,40343 -76563,40343l-954107 0c-37610,0 -58123,-40343 -73407,-40343 -71429,0 -66531,-6123 -60101,28450 16909,89445 20630,123476 48114,212379 5675,17899 3932,16792 19970,25859 32383,18204 25741,11657 37281,48090 6995,22255 14507,43969 24116,64788 19735,43969 37634,77010 61184,115963 31417,51694 48114,71005 84006,112007 6547,7536 3273,5252 8713,12670 28049,38058 126420,113655 173097,135675 36669,17027 108545,20631 157201,20631 100891,0 162075,-11470 234281,-71571 36104,-29885 84547,-68155 112360,-107650 12105,-17121 24964,-31746 38388,-50822 53130,-76021 92059,-142034 119873,-231785 11681,-37540 6547,-31322 39164,-49315 17239,-9373 20395,-29344 28238,-57040 18981,-67731 25528,-116717 38175,-182588 3062,-15826 9067,-25741 -11328,-25741zm-880369 -893769c0,59441 4710,116481 13212,175593 6547,44841 10786,80190 18110,123052 3038,16674 4899,39589 8172,59772 5464,37304 28261,166126 25741,194033 -6759,-9161 -16909,-41543 -21266,-55297 -32406,-99030 -65000,-211272 -84971,-312823 -4027,-20065 -9161,-46347 -13094,-66200 -4145,-19759 -7089,-49645 -12105,-67190 -13636,1507 -25081,12741 -39589,23880 -123593,91942 -232774,275425 -251544,430199 -1743,14931 -2944,40578 -7418,53978 -9797,28803 -32712,15167 -47102,78424 -10362,45924 -7088,111606 -7088,157624 0,34149 23221,25317 82450,25317 33607,0 76234,-2308 108522,754 16038,12317 19759,41896 47454,41896l914165 0c23456,0 31322,-12552 42320,-28708 14084,-20065 25741,-13942 55627,-13942 26070,0 121851,4357 137441,-2402 14719,-8620 11022,-45924 11022,-59442 -118,-221446 -51058,-145189 -60101,-219586 -18111,-149641 -57817,-234187 -144201,-351987 -19193,-26613 -120626,-133627 -149216,-135040 -3062,5134 -23457,113985 -26401,129811 -8172,44723 -18652,84312 -30309,128704 -10480,40037 -22044,83770 -34596,124018l-42085 115304c-3274,-16156 18864,-143329 21478,-163394l33159 -226557c3721,-28355 4805,-55957 7631,-81274 5134,-46559 12105,-114408 -24422,-135792 -62080,-36763 -216525,-61420 -289814,-53013 -69804,8078 -147262,19429 -211296,51482 -15921,8078 -29886,33159 -29886,58806zm-589543 2636469l11234 174863c1413,14060 -448,28567 659,42532 1083,15709 5016,17451 4687,39589 -212,31087 4686,57699 4804,85630 94,30310 3274,54543 4569,82686 1531,27578 2614,57040 4592,85725 1625,28896 -871,24422 43851,44063 29980,13094 161534,70345 180610,85300 41025,32406 33725,93920 33725,142670l-566 330274c0,8195 -2943,11021 7654,11021l1144961 0c13212,0 8172,-5440 8172,-35325l0 -351776c-94,-66225 17145,-95451 80190,-121192l138855 -63139c40130,-16815 37940,-12011 41119,-60337 2072,-31958 4027,-64905 4898,-94885 542,-15826 2520,-28802 2520,-45806 -329,-22703 4028,-30781 4781,-48868 565,-16367 -965,-31864 895,-47666 1743,-15708 3698,-32406 3815,-47243l10998 -190995c5134,-45688 -11987,-43522 -52988,-43404l-1611405 0c-33253,0 -72630,-7206 -72630,26283zm-153574 1124353l284233 0c28049,0 56945,-23998 66554,-42108 14272,-26942 8714,-66413 8714,-100232 0,-70345 4262,-154350 -95,-223047 -4380,-69051 -62503,-85631 -113890,-108428 -21479,-9608 -145614,-62079 -153456,-70039 -10151,-10245 -6877,-31629 -6995,-48302l-7300 -100915c-7089,-87467 -9491,-173756 -18229,-260894 -3485,-35019 -17003,-186191 -12199,-208988 11328,-52259 58665,-106025 117565,-106025l1715451 0c15920,0 35349,7843 46041,12977 17004,8289 23433,13965 35326,25952 45170,44935 39377,90764 32948,150206l-13518 191090c-1202,20960 -4805,38717 -4711,61090 236,24870 -4686,45053 -4686,67308 -94,23009 -2496,41779 -4239,62056l-7536 130777c-1531,28048 -11022,26282 -33819,36550 -30639,13848 -64340,29014 -94768,42744 -72112,32524 -146061,51930 -146061,128728l0 281289c0,23032 9703,41355 22256,53789 11563,11564 34996,24422 53554,24422l284350 0c16368,0 72771,-15472 88362,-23456 29014,-15379 153903,-133273 180845,-158590 39259,-36857 74491,-74161 108757,-117353 39141,-49527 62056,-90222 62056,-170388 0,-94344 -30875,-192079 -45477,-277804 -3932,-23362 -7536,-45170 -12999,-66883l-64670 -343156c-12883,-90082 -36551,-181811 -51694,-272246 -3274,-19405 -44087,-249683 -54214,-272245 -20183,-45170 -87043,-90222 -131977,-110170 -56616,-25317 -116505,-47784 -176159,-68179 -84217,-28684 -200934,-80708 -291463,-112336 -28896,-10033 -161863,-67190 -180091,-66649 -9161,12765 -30851,62928 -38176,80285 -60855,140149 -124441,276060 -187816,414491 -14625,31840 -60219,143870 -76045,164595 -9915,-22585 -17875,-168646 -19830,-213463 -2190,-50186 -22373,-176606 -14954,-214994 41001,-212591 34242,-176700 -45382,-176700l-143329 0c-27696,0 -58995,-14625 -70464,12647 -5887,14059 18888,137535 23669,159791 7112,31864 -12647,222412 -16674,259268 -4593,39047 -8620,145614 -16910,173545 -8737,-10692 -31086,-64576 -38293,-80049l-263084 -579651c-22679,989 -39918,12764 -59677,20183l-99455 37963c-26729,10692 -52376,20066 -79742,30216 -26518,10032 -52023,21054 -79295,31087l-238662 91635c-28920,11776 -51811,19618 -79083,30852 -10033,4262 -27389,11893 -35232,16815 -34030,21596 -64364,43191 -92389,72748 -30875,32499 -39164,126631 -47996,172107 -3062,15167 -4687,30451 -8290,47337 -2732,12670 -7206,31746 -9373,45594 -5228,31982 -12223,62739 -17451,91753l-131106 692624c-19218,90199 -57275,239322 -7089,324928 21808,37305 45688,62292 69686,95333 6759,9279 18770,19547 27154,27719 22585,22797 58029,64458 83676,81697 43403,29227 103952,105484 148109,126750 15497,7418 69169,22349 86737,22349zm3569616 -490182l320359 0 0 291345 -320359 0 0 -291345zm-446567 0l320359 0 0 291345 -320359 0 0 -291345zm446567 -424642l320359 0 0 291345 -320359 0 0 -291345zm-446567 0l320359 0 0 291345 -320359 0 0 -291345zm446567 -424853l320359 0 0 291345 -320359 0 0 -291345zm-446567 0l320359 0 0 291345 -320359 0 0 -291345zm446567 -424735l320359 0 0 291227 -320359 0 0 -291227zm-446567 0l320359 0 0 291227 -320359 0 0 -291227zm-776935 -1060438l292757 0 256773 0 -110076 109958 324740 324269 115728 -115610 0 163723 306487 0 0 38930 -893652 0 0 2114657 124230 0 0 -1648025 0 -362468 342614 0 605487 0 0 298010 317957 0 0 1712483 209742 0 0 188712 -2025872 0c21714,-17993 42980,-38176 58358,-52024 29792,-26942 59136,-54425 88362,-81932 41544,-39047 80049,-79931 115281,-124560 53554,-67519 76351,-122604 76351,-211060 0,-100891 -29886,-190878 -46466,-289061 -4027,-23338 -7960,-46677 -13400,-69568l-64152 -340118c-13306,-91518 -36527,-181058 -51905,-272246 -7748,-46135 -16250,-92271 -24988,-138195l-4356 -22585 0 -702020 0 -521270zm1109399 -470447c129929,0 235176,105271 235176,235176 0,129906 -105247,235153 -235176,235153 -129905,0 -235153,-105247 -235153,-235153 0,-129905 105248,-235176 235153,-235176zm-166103 186309l116599 0 0 -117471 98371 0 0 117471 117494 0 0 98489 -117494 0 0 116716 -98371 0 0 -116716 -116599 0 0 -98489z"/>
 </g>
</svg>
