<?xml version="1.0" encoding="UTF-8"?>
<!DOCTYPE svg PUBLIC "-//W3C//DTD SVG 1.1//EN" "http://www.w3.org/Graphics/SVG/1.1/DTD/svg11.dtd">
<!-- Creator: CorelDRAW X7 -->
<?xml-stylesheet href="9.css" type="text/css"?>
<svg xmlns="http://www.w3.org/2000/svg" xml:space="preserve" width="128px" height="143px" version="1.1" style="shape-rendering:geometricPrecision; text-rendering:geometricPrecision; image-rendering:optimizeQuality; fill-rule:evenodd; clip-rule:evenodd"
viewBox="0 0 2304050 2571308"
 xmlns:xlink="http://www.w3.org/1999/xlink">
 <g id="Capa_x0020_1">
  <metadata id="CorelCorpID_0Corel-Layer"/>
  <g id="_2067472195216">
   <path class="fil0" d="M1151999 902142c211828,0 383494,171665 383494,383480 0,211828 -171666,383494 -383494,383494 -211815,0 -383493,-171666 -383493,-383494 0,-211815 171678,-383480 383493,-383480zm-271088 303718l190305 0 0 -191326 160610 0 0 191326 191325 0 0 160674 -191325 0 0 190253 -160610 0 0 -190253 -190305 0 0 -160674z"/>
   <path class="fil0" d="M388664 1745176l177831 -97278 532385 299723 0 234526c-85801,21574 -149376,99192 -149376,191746 0,108921 88316,197415 197364,197415 109226,0 197593,-88494 197593,-197415 0,-92554 -63690,-170172 -149440,-191746l0 -234526 537414 -302531 182964 100086c-22532,85571 14873,178661 96078,223177 95541,52520 215708,17502 268164,-78154 52469,-95605 17566,-215645 -78090,-268165 -81154,-44464 -179734,-26234 -239964,38720l-185900 -101644 0 -608815 167912 -104439c63576,61481 162998,74745 241573,26349 92733,-57601 121597,-179261 64290,-272109 -57600,-92682 -179248,-121355 -272045,-63997 -78754,48511 -111142,143517 -84486,227837l-170657 106354 -527253 -296786 0 -184521c85750,-21383 149440,-99065 149440,-191619 0,-108933 -88367,-197364 -197593,-197364 -109048,0 -197364,88431 -197364,197364 0,92554 63575,170236 149376,191619l0 184521 -522057 293863 -165806 -103431c26822,-84320 -5796,-179326 -84307,-227837 -92797,-57358 -214573,-28685 -272058,63997 -57473,92848 -28673,214508 64239,272109 78626,48396 178240,35132 241509,-26349l157865 98222 0 620585 -175840 96091c-60116,-64954 -158708,-83184 -239964,-38720 -95555,52520 -130508,172560 -78103,268165 52583,95656 172444,130674 268228,78154 81141,-44516 118610,-137606 96078,-223177zm1233651 -459554c0,259752 -210577,470316 -470316,470316 -259738,0 -470302,-210564 -470302,-470316 0,-259739 210564,-470303 470302,-470303 259739,0 470316,210564 470316,470303z"/>
  </g>
 </g>
</svg>
